<svg xmlns="http://www.w3.org/2000/svg" xmlns:xlink="http://www.w3.org/1999/xlink" width="1080" zoomAndPan="magnify" viewBox="0 0 810 1012.49997" height="1350" preserveAspectRatio="xMidYMid meet" version="1.0"><defs><clipPath id="ff16c4c4eb"><path d="M 145.332031 105 L 704 105 L 704 853.191406 L 145.332031 853.191406 Z M 145.332031 105 " clip-rule="nonzero"/></clipPath><clipPath id="4b34be348a"><path d="M 145.332031 119 L 704 119 L 704 867.328125 L 145.332031 867.328125 Z M 145.332031 119 " clip-rule="nonzero"/></clipPath></defs><g clip-path="url(#ff16c4c4eb)"><path fill="#e6b0aa" d="M 702.769531 302.597656 C 701.230469 288.152344 699.140625 273.734375 696.445312 259.433594 C 698.695312 257.210938 700.195312 253.703125 700.882812 250.917969 C 704.824219 236.425781 700.792969 221.351562 697.625 207.09375 C 695.816406 199.617188 693.550781 192.242188 690.660156 185.109375 C 689.671875 182.652344 688.597656 180.023438 686.484375 178.226562 C 682.527344 174.566406 677.59375 176.707031 675.820312 181.367188 C 673.9375 185.789062 673.558594 190.707031 673.433594 195.464844 C 673.425781 201.335938 674.074219 207.152344 674.960938 212.949219 C 669.960938 211.410156 664.417969 212.140625 659.40625 215.027344 C 643.488281 224.160156 634.621094 247.015625 633.035156 264.609375 C 632.207031 272.382812 633.09375 280.167969 634.152344 287.875 C 635.542969 299.070312 638.160156 310.066406 639.8125 321.21875 C 641.011719 329.253906 640.117188 337.4375 637.882812 345.222656 C 633.921875 358.320312 628.730469 371.054688 625.902344 384.480469 C 624.503906 392.816406 621.902344 400.765625 618.855469 408.566406 C 616.449219 385.445312 613.117188 362.238281 605.007812 340.359375 C 601.222656 330.214844 596.464844 320.472656 591.734375 310.738281 C 585.5625 298.195312 579.769531 285.464844 573.820312 272.8125 C 560.023438 244.492188 542.929688 217.820312 530.441406 188.867188 C 530.496094 187.804688 530.476562 186.765625 530.386719 185.804688 C 529.15625 174.082031 524.871094 162.902344 520.929688 151.863281 C 516.355469 140.03125 510.738281 128.589844 503.90625 117.890625 C 501.300781 114.105469 499.28125 109.621094 495.425781 106.917969 C 492.707031 105.03125 488.664062 104.34375 485.949219 106.59375 C 481.386719 110.792969 482.273438 118.976562 483.203125 124.566406 C 484.019531 128.730469 485.058594 132.84375 486.269531 136.90625 C 477.800781 139.6875 471.101562 146.527344 466.910156 154.320312 C 464.40625 159.09375 462.464844 164.148438 461.046875 169.355469 C 460.578125 167.535156 459.828125 165.808594 458.585938 164.347656 C 451.246094 156.429688 443.757812 170.472656 440.984375 176.296875 C 433.59375 192.941406 428.585938 210.738281 426.582031 228.859375 C 426.078125 233.808594 425.832031 238.785156 426.011719 243.753906 C 422.714844 249.886719 419.210938 255.914062 415.832031 262.007812 C 408.261719 275.578125 401.003906 289.285156 394.574219 303.402344 C 389.246094 300.609375 383.894531 297.855469 378.523438 295.140625 C 377.3125 292.527344 375.113281 289.933594 372.3125 287.695312 C 366.039062 282.578125 358.738281 278.90625 351.414062 275.53125 C 343.007812 271.757812 334.386719 268.425781 325.636719 265.523438 C 321.238281 264.097656 316.796875 262.820312 312.328125 261.652344 C 305.675781 260.027344 298.871094 257.792969 291.953125 258.664062 C 283.875 259.683594 280.679688 265.550781 285.351562 272.441406 C 287.332031 275.425781 290.019531 277.828125 292.667969 280.207031 C 297.832031 284.675781 303.386719 288.675781 309.234375 292.195312 C 302.25 305.59375 303.546875 322.6875 311.265625 335.53125 C 312.121094 336.894531 313.019531 338.230469 313.953125 339.542969 C 312.371094 339.386719 310.789062 339.351562 309.207031 339.566406 C 301.167969 340.914062 301.296875 348.160156 306.421875 353.015625 C 312.53125 359.09375 320.605469 362.6875 328.457031 365.976562 C 328.550781 366.015625 328.652344 366.058594 328.746094 366.09375 C 328.605469 366.4375 328.464844 366.789062 328.34375 367.15625 C 325.203125 374.832031 326.296875 382.714844 329.984375 389.964844 C 332.800781 395.75 336.46875 401.03125 340.730469 405.792969 C 333.640625 419.25 325.4375 432.160156 316.351562 444.359375 C 308.605469 454.503906 299.652344 463.667969 290.253906 472.285156 C 271.941406 488.996094 252.039062 503.890625 234.378906 521.328125 C 219.484375 535.871094 205.667969 551.515625 193.25 568.226562 C 182.234375 582.933594 172.609375 598.730469 165.011719 615.476562 C 157.410156 632.652344 151.898438 650.789062 148.738281 669.3125 C 146.449219 683.3125 145.351562 697.535156 145.375 711.722656 C 145.980469 729.617188 152.292969 746.90625 160.972656 762.410156 C 155.828125 750.03125 151.769531 736.960938 150.054688 723.585938 C 148.832031 713.230469 149.359375 702.742188 150.050781 692.367188 C 152.296875 656.75 164.671875 622.277344 183.90625 592.34375 C 200.792969 565.851562 221.199219 541.652344 243.875 519.933594 C 263.84375 500.777344 286.359375 484.40625 305.488281 464.355469 C 321.183594 448.0625 334.078125 428.894531 342.761719 407.972656 C 345.480469 410.792969 348.40625 413.421875 351.488281 415.851562 C 360.234375 422.984375 369.589844 429.53125 380.160156 433.652344 C 385.257812 435.792969 390.414062 437.855469 395.742188 439.378906 C 402.285156 441.023438 409.214844 442.144531 416.160156 442.554688 C 422.042969 451.382812 429.878906 458.898438 438.542969 464.980469 C 452.964844 474.785156 470.164062 479.878906 487.5 480.890625 C 481.007812 492.578125 478.535156 506.476562 480.652344 519.683594 C 473.574219 527.761719 467.761719 537.34375 464.253906 546.015625 C 462.847656 549.578125 461.734375 553.21875 460.898438 556.910156 C 458.203125 558.199219 455.476562 559.417969 452.710938 560.550781 C 443.894531 564.082031 434.820312 566.925781 425.808594 569.90625 C 410.347656 574.914062 394.65625 579.195312 378.847656 582.980469 C 339.191406 591.929688 298.519531 597.425781 260.773438 613.269531 C 246.4375 619.078125 232.355469 626.179688 220.671875 636.4375 C 207.511719 648.578125 195.53125 664.1875 189.296875 681.066406 C 194.667969 671.621094 201.808594 663.136719 209.429688 655.363281 C 217.777344 647.144531 226.300781 638.9375 236.148438 632.523438 C 247.3125 625.25 259.539062 619.804688 271.984375 615.125 C 293.058594 607.226562 314.933594 601.621094 337.0625 597.585938 C 361.53125 593.074219 385.902344 587.816406 409.761719 580.71875 C 424.890625 576.300781 439.921875 571.257812 453.835938 563.757812 C 456.027344 562.558594 458.167969 561.285156 460.273438 559.945312 C 457.40625 575.339844 459.125 591.445312 464.003906 606.433594 C 462.648438 594.910156 462.574219 583.066406 463.800781 571.488281 C 464.628906 566.011719 465.761719 560.585938 467.25 555.257812 C 467.339844 554.9375 467.429688 554.613281 467.527344 554.296875 C 467.605469 554.015625 467.683594 553.742188 467.769531 553.460938 C 469.707031 546.945312 472.1875 540.585938 475.320312 534.503906 C 477.25 530.898438 479.25 527.210938 481.445312 523.652344 C 481.714844 524.804688 482.019531 525.949219 482.363281 527.085938 C 488.089844 546.265625 508.546875 569.851562 523.925781 582.464844 C 515.378906 572.644531 507.765625 561.851562 500.75 550.839844 C 495.378906 541.996094 489.5 533.152344 487.007812 522.988281 C 486.515625 521.066406 486.121094 519.125 485.816406 517.179688 C 485.804688 517.136719 485.800781 517.089844 485.796875 517.046875 C 485.761719 516.816406 485.726562 516.589844 485.695312 516.363281 C 485.671875 516.207031 485.652344 516.058594 485.636719 515.910156 C 485.605469 515.695312 485.582031 515.484375 485.550781 515.269531 C 485.527344 515.105469 485.511719 514.941406 485.492188 514.777344 C 485.480469 514.726562 485.476562 514.683594 485.472656 514.632812 C 484.167969 503.285156 485.929688 491.667969 490.09375 481.011719 C 490.496094 481.03125 490.894531 481.039062 491.296875 481.050781 C 500.390625 481.394531 509.507812 480.699219 518.445312 478.996094 C 509.539062 478.914062 500.675781 478.191406 491.832031 476.964844 C 491.53125 476.925781 491.226562 476.878906 490.929688 476.839844 C 490.625 476.796875 490.324219 476.753906 490.027344 476.710938 C 486.789062 476.238281 483.550781 475.691406 480.320312 475.089844 C 469.964844 473.070312 459.859375 469.902344 450.152344 465.285156 C 442.082031 461.332031 434.761719 456.03125 427.941406 450.210938 C 425.183594 447.847656 422.515625 445.351562 420.023438 442.710938 C 419.992188 442.679688 419.96875 442.65625 419.941406 442.621094 C 419.757812 442.429688 419.578125 442.234375 419.402344 442.039062 C 419.085938 441.695312 418.773438 441.351562 418.460938 441.003906 C 415.132812 437.28125 412.152344 433.265625 409.707031 428.894531 C 408.847656 427.261719 407.671875 425.5625 407.328125 423.726562 C 407.347656 423.695312 407.308594 423.695312 407.304688 423.75 C 408.121094 427.597656 410.167969 431.246094 411.742188 434.847656 C 412.648438 436.699219 413.648438 438.503906 414.71875 440.261719 C 410.035156 439.257812 405.386719 438.003906 400.804688 436.59375 C 394.9375 434.648438 389.390625 431.867188 383.742188 429.390625 C 373.277344 425.007812 363.746094 418.988281 354.773438 412.03125 C 351.207031 409.339844 347.804688 406.347656 344.730469 403.0625 C 344.148438 402.4375 343.578125 401.804688 343.019531 401.15625 C 338.617188 396.0625 335.019531 390.3125 332.765625 383.9375 C 330.914062 378.824219 331.347656 372.886719 333.878906 368.0625 C 338.074219 369.625 342.316406 371.058594 346.582031 372.421875 C 352.179688 374.902344 358.023438 376.777344 363.917969 378.402344 C 368.015625 379.519531 372.210938 380.421875 376.46875 380.492188 C 379.867188 380.5 383.605469 380.441406 386.515625 378.472656 C 390.339844 375.808594 389.710938 371.34375 387.382812 368.03125 C 403.484375 370.5 419.726562 372.175781 435.554688 376.023438 C 447.242188 379.046875 457.640625 385.613281 468.195312 391.539062 C 482.914062 399.792969 497.816406 407.703125 512.644531 415.761719 C 521.304688 420.628906 530.734375 424.582031 537.972656 431.554688 C 544.867188 438.425781 549.71875 447.042969 553.539062 455.933594 C 556.957031 464.214844 558.765625 473.03125 561.289062 481.605469 C 565.800781 497.792969 571.738281 513.519531 577.042969 529.457031 C 584.527344 553.945312 590.15625 579.183594 592.769531 604.667969 C 592.773438 604.671875 592.769531 604.707031 592.777344 604.710938 C 592.789062 604.71875 592.796875 604.707031 592.792969 604.695312 C 592.792969 604.691406 592.792969 604.691406 592.792969 604.691406 C 592.226562 582.800781 590.464844 560.773438 584.894531 539.53125 C 580.039062 520.109375 572.339844 501.484375 566.886719 482.222656 C 564.523438 474.351562 562.507812 466.359375 559.632812 458.648438 C 555.519531 448.242188 550.316406 437.996094 542.746094 429.660156 C 538.964844 425.546875 534.421875 422.214844 529.59375 419.429688 C 522.25 415.140625 514.800781 411.050781 507.386719 406.871094 C 492.753906 398.691406 478.109375 390.53125 463.574219 382.171875 C 458.675781 379.339844 453.710938 376.605469 448.507812 374.367188 C 433.34375 367.816406 416.699219 366.382812 400.566406 363.734375 C 392.441406 362.410156 384.308594 361.097656 376.210938 359.601562 C 372.304688 357.464844 368.199219 355.652344 364.148438 353.863281 C 356.292969 350.378906 348.222656 347.398438 339.976562 344.972656 C 333.792969 343.0625 327.472656 341.667969 321.09375 340.609375 C 320.476562 340.519531 319.851562 340.421875 319.230469 340.316406 C 314.734375 334.539062 311.058594 328.140625 309.722656 320.871094 C 307.898438 312.195312 308.789062 302.304688 312.945312 294.308594 C 325.84375 301.480469 340.019531 306.402344 354.511719 308.996094 C 358.789062 309.851562 363.085938 310.613281 367.410156 311.1875 C 365.859375 310.683594 364.160156 310.214844 362.566406 309.695312 C 365.640625 309.953125 368.746094 309.464844 371.570312 308.210938 C 376.253906 306.523438 378.652344 304.050781 379.355469 301.261719 C 383.75 303.496094 388.140625 305.761719 392.507812 308.039062 C 393.378906 308.492188 394.246094 308.941406 395.113281 309.402344 C 395.132812 309.410156 395.152344 309.425781 395.171875 309.4375 C 416.96875 320.851562 438.5 332.777344 459.980469 344.792969 C 460.648438 345.167969 461.3125 345.542969 461.980469 345.910156 C 465.445312 347.851562 468.914062 349.796875 472.378906 351.742188 C 488.664062 360.855469 505.261719 369.375 521.449219 378.667969 C 526.210938 381.453125 531.015625 384.246094 535.582031 387.359375 L 535.582031 387.363281 C 535.78125 387.5 535.988281 387.640625 536.1875 387.777344 C 536.824219 388.21875 537.453125 388.660156 538.082031 389.121094 C 538.316406 389.289062 538.550781 389.460938 538.785156 389.632812 C 539.046875 389.824219 539.304688 390.019531 539.558594 390.214844 C 539.851562 390.4375 540.148438 390.660156 540.4375 390.886719 C 540.878906 391.226562 541.316406 391.574219 541.75 391.921875 C 541.792969 391.957031 541.839844 392 541.882812 392.035156 C 542.488281 392.523438 543.085938 393.027344 543.675781 393.535156 C 547.269531 396.675781 550.433594 400.261719 553.320312 404.058594 C 562.316406 415.621094 568.957031 428.71875 574.292969 442.316406 C 582.941406 463.65625 591.28125 485.300781 595.355469 508.054688 C 597.871094 522.230469 599.929688 536.714844 599.203125 551.136719 C 599.203125 551.136719 599.203125 551.136719 599.207031 551.136719 C 601.800781 532.507812 601.816406 513.28125 597.695312 494.847656 C 592.167969 470.546875 582.519531 447.363281 572.359375 424.683594 C 566.726562 413.4375 559.882812 402.601562 551.273438 393.394531 C 547.125 389.144531 542.417969 385.542969 537.453125 382.316406 C 531.121094 369.238281 524.117188 356.429688 519.816406 342.488281 C 514.464844 325.996094 511.574219 308.707031 504.714844 292.707031 C 501.246094 284.257812 496.777344 276.332031 492.117188 268.515625 C 490.425781 265.683594 488.707031 262.867188 487.007812 260.042969 C 485.984375 258.339844 484.960938 256.644531 483.960938 254.941406 C 478.292969 245.113281 473.355469 234.855469 469.910156 224.027344 C 469.035156 221.15625 468.21875 218.339844 467.480469 215.554688 C 467.226562 214.597656 466.980469 213.644531 466.753906 212.699219 C 466.675781 212.398438 466.609375 212.105469 466.539062 211.804688 L 466.53125 211.804688 C 463.65625 199.746094 462.546875 188.0625 465.449219 175.003906 C 467.644531 164.261719 472.078125 153.324219 480.828125 146.285156 C 482.957031 144.699219 485.421875 143.238281 488.023438 142.394531 C 490.898438 150.839844 494.488281 159.050781 498.464844 167.015625 C 500.96875 174.488281 504.136719 181.824219 508.910156 188.144531 C 512.125 192.261719 515.5625 197.851562 521.019531 198.957031 C 523.996094 199.640625 526.136719 198.792969 527.628906 197.152344 C 528.914062 199.980469 530.246094 202.792969 531.636719 205.574219 C 540.796875 224.832031 551.824219 243.109375 562.039062 261.804688 C 571.890625 280.507812 580.453125 299.84375 589.679688 318.859375 C 594.472656 328.988281 599.128906 339.203125 602.570312 349.882812 C 609.820312 372.238281 612.082031 395.734375 614.566406 419.011719 C 614.574219 419.082031 614.578125 419.152344 614.589844 419.222656 C 614.691406 420.160156 614.789062 421.09375 614.890625 422.03125 C 614.933594 422.453125 614.980469 422.871094 615.023438 423.296875 C 615.070312 423.753906 615.113281 424.214844 615.164062 424.667969 C 618.46875 457.8125 620.972656 491.296875 619.777344 524.625 C 619.777344 524.625 619.777344 524.625 619.777344 524.628906 C 619.746094 525.40625 619.722656 526.1875 619.6875 526.96875 C 619.65625 527.726562 619.621094 528.488281 619.585938 529.246094 C 619.546875 530.125 619.503906 531.003906 619.457031 531.878906 C 619.421875 532.578125 619.382812 533.28125 619.34375 533.980469 C 618.878906 542.070312 618.179688 550.152344 617.203125 558.210938 C 614.949219 574.960938 610.128906 591.214844 607.28125 607.855469 C 604.433594 624.019531 603.691406 641.371094 593.9375 655.242188 C 581.3125 673.382812 562.207031 685.628906 543.429688 696.621094 C 515.125 712.839844 485.535156 726.632812 455.695312 739.753906 C 407.015625 760.914062 358.847656 785.21875 319.292969 821.214844 C 310.925781 828.835938 303.015625 836.980469 295.628906 845.5625 C 293.335938 848.164062 291.222656 850.933594 288.742188 853.355469 C 307.597656 835.257812 327.8125 818.382812 348.980469 802.921875 C 365.417969 791.019531 382.8125 780.691406 400.695312 771.070312 C 440.640625 749.265625 483.550781 733.726562 524.132812 713.246094 C 547.179688 701.328125 570.402344 688.40625 588.636719 669.632812 C 607.703125 649.980469 607.738281 633.425781 611.738281 608.277344 C 613.6875 596.613281 616.59375 585.140625 618.703125 573.507812 C 621.359375 558.894531 622.640625 544.066406 623.203125 529.226562 C 623.222656 528.71875 623.25 528.214844 623.261719 527.710938 C 624.835938 525.25 626.4375 522.816406 628.042969 520.402344 C 639.488281 503.496094 652.617188 487.832031 665.496094 472.027344 C 674.867188 460.367188 684.523438 448.738281 691.550781 435.460938 C 698.824219 422.269531 700.707031 407.117188 701.617188 392.304688 C 703.210938 362.449219 705.273438 332.445312 702.769531 302.597656 Z M 492.59375 279.117188 C 498.054688 288.632812 502.453125 298.738281 505.746094 309.207031 C 509.695312 322.082031 512.492188 335.304688 516.910156 348.035156 C 520.582031 358.441406 525.347656 368.402344 530.5625 378.113281 C 529.976562 377.773438 529.390625 377.4375 528.800781 377.105469 C 520.304688 372.21875 511.648438 367.609375 503 363.011719 C 490.414062 356.179688 477.898438 349.21875 465.394531 342.230469 C 474.269531 332.074219 481.351562 319.4375 485.53125 307.925781 C 488.523438 298.132812 490.957031 288.042969 491.820312 277.820312 C 492.082031 278.246094 492.339844 278.683594 492.59375 279.117188 Z M 464.527344 224.785156 C 469.71875 241.234375 478.59375 255.996094 487.488281 270.660156 C 487.421875 277.648438 486.558594 284.636719 485.003906 291.449219 C 482.753906 302.183594 479.371094 312.214844 474.074219 321.949219 C 470.671875 328.433594 467.0625 334.832031 462.886719 340.835938 C 441.253906 328.738281 419.644531 316.605469 397.714844 305.050781 C 404.332031 293.605469 410.859375 282.082031 416.933594 270.378906 C 420.285156 264.03125 423.449219 257.582031 426.351562 251.015625 C 426.5 252.167969 426.710938 253.175781 426.960938 253.78125 C 428.003906 257.484375 431.683594 259.625 435.371094 259.808594 C 441.503906 260.261719 446.289062 255.488281 449.921875 251.121094 C 457.375 241.378906 460.933594 229.4375 462.378906 217.265625 C 463.070312 219.78125 463.800781 222.28125 464.527344 224.785156 Z M 696.15625 388.203125 C 695.136719 401.863281 694.605469 415.925781 689.070312 428.683594 C 685.285156 437.636719 679.660156 445.640625 673.824219 453.359375 C 667.070312 462.246094 659.96875 470.910156 652.90625 479.5625 C 642.699219 492.144531 632.339844 504.808594 623.566406 518.457031 C 624.515625 484.550781 623.039062 450.609375 619.683594 416.851562 C 623.222656 410.464844 626.371094 403.882812 628.648438 396.902344 C 629.808594 393.234375 630.683594 389.496094 631.464844 385.734375 C 633.144531 377.792969 635.339844 369.972656 637.902344 362.28125 C 642.8125 348.207031 647.445312 334.179688 644.679688 319.09375 C 641.617188 299.855469 635.980469 280.421875 639.003906 260.820312 C 641.703125 245.65625 649.238281 226.0625 664.074219 219.238281 C 668.742188 217.21875 672.8125 217.734375 676.105469 219.847656 C 676.675781 223.117188 677.277344 226.390625 677.820312 229.65625 C 679.214844 239.3125 679.257812 256.285156 689.351562 261.195312 C 689.910156 261.398438 690.453125 261.527344 690.976562 261.589844 C 694.339844 279.410156 697.292969 297.339844 698.03125 315.476562 C 698.894531 339.632812 697.707031 363.941406 696.15625 388.203125 Z M 696.15625 388.203125 " fill-opacity="1" fill-rule="nonzero"/></g><g clip-path="url(#4b34be348a)"><path fill="#7b4b94" d="M 702.441406 316.617188 C 700.90625 302.179688 698.816406 287.769531 696.121094 273.476562 C 698.371094 271.253906 699.871094 267.75 700.558594 264.96875 C 704.496094 250.480469 700.46875 235.417969 697.300781 221.164062 C 695.492188 213.695312 693.230469 206.324219 690.339844 199.199219 C 689.351562 196.738281 688.28125 194.113281 686.167969 192.320312 C 682.214844 188.660156 677.285156 190.796875 675.507812 195.453125 C 673.628906 199.875 673.25 204.789062 673.125 209.546875 C 673.117188 215.414062 673.765625 221.226562 674.652344 227.019531 C 669.652344 225.484375 664.113281 226.210938 659.105469 229.097656 C 643.195312 238.222656 634.335938 261.066406 632.75 278.652344 C 631.921875 286.417969 632.808594 294.199219 633.867188 301.902344 C 635.257812 313.089844 637.875 324.078125 639.523438 335.222656 C 640.71875 343.253906 639.828125 351.433594 637.59375 359.214844 C 633.636719 372.304688 628.445312 385.03125 625.621094 398.453125 C 624.226562 406.78125 621.621094 414.726562 618.578125 422.523438 C 616.175781 399.414062 612.84375 376.21875 604.738281 354.355469 C 600.957031 344.214844 596.199219 334.480469 591.472656 324.75 C 585.304688 312.214844 579.515625 299.492188 573.570312 286.847656 C 559.78125 258.542969 542.699219 231.886719 530.214844 202.953125 C 530.269531 201.890625 530.25 200.851562 530.160156 199.890625 C 528.929688 188.175781 524.648438 177 520.710938 165.96875 C 516.136719 154.144531 510.527344 142.710938 503.695312 132.015625 C 501.09375 128.234375 499.074219 123.753906 495.222656 121.050781 C 492.503906 119.164062 488.460938 118.476562 485.75 120.726562 C 481.191406 124.921875 482.078125 133.105469 483.003906 138.6875 C 483.820312 142.847656 484.859375 146.960938 486.070312 151.019531 C 477.605469 153.800781 470.910156 160.636719 466.722656 168.425781 C 464.222656 173.195312 462.277344 178.246094 460.863281 183.449219 C 460.394531 181.632812 459.644531 179.90625 458.402344 178.445312 C 451.066406 170.535156 443.585938 184.566406 440.8125 190.390625 C 433.425781 207.023438 428.421875 224.808594 426.417969 242.917969 C 425.914062 247.863281 425.667969 252.839844 425.847656 257.804688 C 422.554688 263.9375 419.046875 269.957031 415.675781 276.050781 C 408.105469 289.613281 400.855469 303.3125 394.429688 317.417969 C 389.105469 314.625 383.757812 311.875 378.386719 309.164062 C 377.175781 306.550781 374.976562 303.960938 372.179688 301.722656 C 365.910156 296.605469 358.613281 292.9375 351.292969 289.5625 C 342.890625 285.792969 334.277344 282.464844 325.53125 279.5625 C 321.136719 278.136719 316.695312 276.863281 312.226562 275.695312 C 305.582031 274.070312 298.777344 271.835938 291.867188 272.710938 C 283.792969 273.726562 280.597656 279.589844 285.269531 286.476562 C 287.25 289.457031 289.9375 291.859375 292.582031 294.238281 C 297.742188 298.707031 303.296875 302.703125 309.136719 306.21875 C 302.160156 319.613281 303.453125 336.695312 311.167969 349.53125 C 312.023438 350.890625 312.921875 352.226562 313.851562 353.539062 C 312.273438 353.382812 310.691406 353.347656 309.113281 353.5625 C 301.078125 354.910156 301.207031 362.152344 306.328125 367.003906 C 312.433594 373.078125 320.503906 376.667969 328.347656 379.957031 C 328.445312 379.996094 328.542969 380.039062 328.636719 380.074219 C 328.5 380.417969 328.359375 380.769531 328.234375 381.132812 C 325.097656 388.804688 326.191406 396.6875 329.875 403.929688 C 332.691406 409.710938 336.355469 414.992188 340.617188 419.753906 C 333.527344 433.199219 325.332031 446.101562 316.25 458.292969 C 308.507812 468.433594 299.5625 477.589844 290.171875 486.203125 C 271.867188 502.902344 251.976562 517.789062 234.324219 535.214844 C 219.441406 549.75 205.632812 565.390625 193.21875 582.089844 C 182.214844 596.789062 172.59375 612.574219 165 629.308594 C 157.402344 646.476562 151.894531 664.601562 148.734375 683.117188 C 146.449219 697.109375 145.351562 711.320312 145.375 725.503906 C 145.980469 743.382812 152.289062 760.664062 160.964844 776.160156 C 155.824219 763.785156 151.765625 750.726562 150.050781 737.355469 C 148.832031 727.007812 149.359375 716.523438 150.046875 706.15625 C 152.292969 670.558594 164.660156 636.109375 183.882812 606.191406 C 200.761719 579.714844 221.15625 555.527344 243.816406 533.824219 C 263.777344 514.679688 286.277344 498.316406 305.394531 478.277344 C 321.082031 461.992188 333.96875 442.835938 342.644531 421.929688 C 345.363281 424.746094 348.289062 427.375 351.371094 429.800781 C 360.109375 436.929688 369.460938 443.476562 380.023438 447.59375 C 385.117188 449.730469 390.269531 451.792969 395.59375 453.316406 C 402.136719 454.960938 409.058594 456.082031 416.003906 456.492188 C 421.878906 465.3125 429.710938 472.824219 438.371094 478.902344 C 452.785156 488.703125 469.972656 493.792969 487.300781 494.804688 C 480.8125 506.484375 478.339844 520.375 480.457031 533.574219 C 473.382812 541.644531 467.570312 551.222656 464.066406 559.890625 C 462.660156 563.449219 461.550781 567.089844 460.710938 570.777344 C 458.019531 572.070312 455.292969 573.285156 452.53125 574.417969 C 443.71875 577.945312 434.652344 580.789062 425.644531 583.769531 C 410.191406 588.773438 394.507812 593.050781 378.710938 596.832031 C 339.078125 605.777344 298.429688 611.269531 260.703125 627.105469 C 246.378906 632.910156 232.304688 640.007812 220.625 650.261719 C 207.476562 662.394531 195.503906 677.992188 189.273438 694.859375 C 194.640625 685.425781 201.773438 676.945312 209.390625 669.171875 C 217.734375 660.957031 226.253906 652.757812 236.09375 646.347656 C 247.25 639.082031 259.472656 633.636719 271.910156 628.960938 C 292.972656 621.066406 314.835938 615.460938 336.949219 611.429688 C 361.402344 606.921875 385.761719 601.667969 409.605469 594.574219 C 424.726562 590.160156 439.75 585.121094 453.652344 577.621094 C 455.847656 576.425781 457.984375 575.148438 460.089844 573.8125 C 457.222656 589.195312 458.941406 605.292969 463.816406 620.273438 C 462.460938 608.757812 462.386719 596.917969 463.613281 585.347656 C 464.441406 579.875 465.570312 574.453125 467.0625 569.128906 C 467.152344 568.808594 467.242188 568.484375 467.335938 568.164062 C 467.417969 567.886719 467.496094 567.613281 467.582031 567.332031 C 469.515625 560.816406 471.996094 554.460938 475.128906 548.386719 C 477.058594 544.78125 479.054688 541.097656 481.25 537.539062 C 481.519531 538.691406 481.824219 539.835938 482.167969 540.972656 C 487.890625 560.140625 508.332031 583.714844 523.707031 596.320312 C 515.160156 586.503906 507.554688 575.71875 500.539062 564.710938 C 495.171875 555.875 489.300781 547.035156 486.808594 536.875 C 486.3125 534.957031 485.921875 533.019531 485.617188 531.074219 C 485.605469 531.027344 485.601562 530.984375 485.597656 530.9375 C 485.5625 530.710938 485.527344 530.480469 485.496094 530.257812 C 485.472656 530.101562 485.453125 529.953125 485.4375 529.800781 C 485.40625 529.589844 485.382812 529.378906 485.351562 529.164062 C 485.328125 529 485.3125 528.835938 485.292969 528.671875 C 485.28125 528.621094 485.277344 528.574219 485.273438 528.527344 C 483.972656 517.1875 485.730469 505.574219 489.894531 494.921875 C 490.292969 494.941406 490.691406 494.953125 491.09375 494.964844 C 500.183594 495.308594 509.292969 494.613281 518.226562 492.910156 C 509.324219 492.828125 500.464844 492.105469 491.628906 490.878906 C 491.328125 490.839844 491.023438 490.796875 490.726562 490.757812 C 490.421875 490.710938 490.121094 490.671875 489.824219 490.625 C 486.589844 490.152344 483.351562 489.609375 480.121094 489.007812 C 469.773438 486.988281 459.675781 483.820312 449.976562 479.207031 C 441.910156 475.257812 434.589844 469.960938 427.777344 464.140625 C 425.019531 461.777344 422.355469 459.285156 419.859375 456.644531 C 419.832031 456.613281 419.804688 456.589844 419.78125 456.554688 C 419.597656 456.367188 419.417969 456.171875 419.242188 455.976562 C 418.925781 455.632812 418.613281 455.289062 418.300781 454.941406 C 414.976562 451.222656 411.996094 447.207031 409.550781 442.835938 C 408.695312 441.207031 407.519531 439.507812 407.175781 437.671875 C 407.195312 437.644531 407.15625 437.644531 407.148438 437.699219 C 407.96875 441.539062 410.011719 445.191406 411.585938 448.789062 C 412.492188 450.636719 413.492188 452.441406 414.5625 454.195312 C 409.882812 453.195312 405.234375 451.945312 400.65625 450.535156 C 394.792969 448.589844 389.25 445.808594 383.601562 443.335938 C 373.144531 438.953125 363.617188 432.9375 354.648438 425.984375 C 351.085938 423.296875 347.6875 420.304688 344.613281 417.019531 C 344.03125 416.398438 343.464844 415.765625 342.90625 415.117188 C 338.503906 410.027344 334.910156 404.277344 332.65625 397.910156 C 330.808594 392.800781 331.242188 386.863281 333.769531 382.042969 C 337.960938 383.601562 342.203125 385.039062 346.464844 386.398438 C 352.058594 388.875 357.898438 390.75 363.792969 392.375 C 367.882812 393.492188 372.078125 394.394531 376.332031 394.464844 C 379.726562 394.472656 383.46875 394.414062 386.371094 392.445312 C 390.195312 389.78125 389.566406 385.320312 387.242188 382.011719 C 403.332031 384.480469 419.566406 386.152344 435.382812 389.996094 C 447.0625 393.019531 457.457031 399.582031 468.003906 405.503906 C 482.714844 413.753906 497.609375 421.660156 512.429688 429.710938 C 521.082031 434.578125 530.511719 438.53125 537.742188 445.5 C 544.632812 452.363281 549.480469 460.976562 553.300781 469.859375 C 556.714844 478.140625 558.523438 486.949219 561.046875 495.515625 C 565.554688 511.699219 571.488281 527.414062 576.789062 543.339844 C 584.269531 567.816406 589.894531 593.039062 592.507812 618.507812 C 592.511719 618.511719 592.507812 618.546875 592.515625 618.550781 C 592.527344 618.558594 592.535156 618.546875 592.53125 618.539062 C 592.53125 618.53125 592.53125 618.53125 592.53125 618.53125 C 591.964844 596.652344 590.203125 574.640625 584.636719 553.410156 C 579.785156 534 572.089844 515.386719 566.640625 496.132812 C 564.277344 488.269531 562.261719 480.28125 559.390625 472.578125 C 555.28125 462.171875 550.082031 451.933594 542.511719 443.605469 C 538.734375 439.492188 534.195312 436.160156 529.367188 433.378906 C 522.03125 429.09375 514.582031 425.007812 507.175781 420.828125 C 492.550781 412.652344 477.914062 404.5 463.390625 396.144531 C 458.492188 393.3125 453.527344 390.582031 448.328125 388.34375 C 433.175781 381.796875 416.542969 380.363281 400.414062 377.714844 C 392.296875 376.394531 384.167969 375.082031 376.074219 373.585938 C 372.171875 371.449219 368.070312 369.640625 364.019531 367.851562 C 356.167969 364.371094 348.105469 361.390625 339.863281 358.964844 C 333.683594 357.058594 327.367188 355.660156 320.992188 354.605469 C 320.375 354.515625 319.75 354.414062 319.128906 354.3125 C 314.636719 348.539062 310.960938 342.144531 309.625 334.878906 C 307.800781 326.207031 308.695312 316.320312 312.847656 308.332031 C 325.738281 315.5 339.90625 320.417969 354.390625 323.011719 C 358.664062 323.863281 362.960938 324.625 367.28125 325.199219 C 365.730469 324.695312 364.03125 324.226562 362.441406 323.707031 C 365.511719 323.96875 368.617188 323.480469 371.4375 322.222656 C 376.121094 320.539062 378.515625 318.066406 379.21875 315.28125 C 383.613281 317.511719 388 319.777344 392.363281 322.054688 C 393.230469 322.507812 394.097656 322.957031 394.96875 323.414062 C 394.988281 323.425781 395.007812 323.441406 395.027344 323.449219 C 416.808594 334.859375 438.328125 346.777344 459.792969 358.789062 C 460.460938 359.160156 461.125 359.535156 461.792969 359.902344 C 465.257812 361.84375 468.722656 363.785156 472.1875 365.730469 C 488.460938 374.839844 505.050781 383.351562 521.226562 392.640625 C 525.988281 395.425781 530.789062 398.21875 535.355469 401.328125 L 535.355469 401.332031 C 535.554688 401.46875 535.757812 401.605469 535.957031 401.746094 C 536.597656 402.183594 537.222656 402.628906 537.851562 403.085938 C 538.085938 403.257812 538.320312 403.425781 538.554688 403.601562 C 538.816406 403.789062 539.074219 403.984375 539.328125 404.179688 C 539.621094 404.402344 539.917969 404.628906 540.207031 404.851562 C 540.648438 405.191406 541.082031 405.539062 541.515625 405.890625 C 541.5625 405.925781 541.605469 405.964844 541.652344 406 C 542.253906 406.488281 542.851562 406.992188 543.441406 407.5 C 547.035156 410.640625 550.195312 414.222656 553.082031 418.015625 C 562.074219 429.570312 568.707031 442.664062 574.042969 456.25 C 582.6875 477.582031 591.019531 499.210938 595.09375 521.953125 C 597.605469 536.117188 599.664062 550.59375 598.9375 565.011719 C 598.9375 565.011719 598.9375 565.011719 598.941406 565.011719 C 601.535156 546.390625 601.546875 527.175781 597.429688 508.75 C 591.90625 484.464844 582.261719 461.296875 572.109375 438.628906 C 566.480469 427.390625 559.640625 416.5625 551.039062 407.359375 C 546.890625 403.113281 542.183594 399.511719 537.222656 396.289062 C 530.894531 383.21875 523.894531 370.417969 519.597656 356.484375 C 514.25 340 511.359375 322.722656 504.503906 306.730469 C 501.039062 298.285156 496.574219 290.367188 491.910156 282.554688 C 490.222656 279.722656 488.507812 276.90625 486.808594 274.085938 C 485.785156 272.386719 484.765625 270.691406 483.761719 268.984375 C 478.097656 259.164062 473.164062 248.910156 469.71875 238.089844 C 468.847656 235.222656 468.03125 232.40625 467.292969 229.625 C 467.039062 228.667969 466.792969 227.714844 466.5625 226.769531 C 466.488281 226.46875 466.417969 226.175781 466.351562 225.875 L 466.34375 225.875 C 463.46875 213.824219 462.363281 202.148438 465.261719 189.097656 C 467.457031 178.359375 471.886719 167.429688 480.632812 160.394531 C 482.761719 158.808594 485.222656 157.351562 487.824219 156.507812 C 490.695312 164.945312 494.285156 173.152344 498.257812 181.113281 C 500.761719 188.578125 503.925781 195.914062 508.695312 202.226562 C 511.910156 206.347656 515.347656 211.929688 520.800781 213.035156 C 523.773438 213.71875 525.914062 212.871094 527.402344 211.230469 C 528.691406 214.058594 530.019531 216.867188 531.410156 219.648438 C 540.5625 238.898438 551.585938 257.160156 561.792969 275.84375 C 571.640625 294.539062 580.199219 313.863281 589.421875 332.867188 C 594.210938 342.992188 598.863281 353.199219 602.300781 363.871094 C 609.550781 386.214844 611.808594 409.699219 614.289062 432.960938 C 614.300781 433.03125 614.304688 433.101562 614.316406 433.171875 C 614.414062 434.109375 614.515625 435.039062 614.613281 435.976562 C 614.660156 436.402344 614.703125 436.820312 614.75 437.242188 C 614.792969 437.703125 614.839844 438.160156 614.886719 438.613281 C 618.191406 471.738281 620.695312 505.203125 619.5 538.511719 C 619.5 538.511719 619.5 538.511719 619.5 538.515625 C 619.46875 539.292969 619.445312 540.074219 619.410156 540.855469 C 619.378906 541.613281 619.34375 542.375 619.308594 543.132812 C 619.269531 544.007812 619.226562 544.886719 619.179688 545.765625 C 619.144531 546.460938 619.105469 547.164062 619.066406 547.863281 C 618.601562 555.949219 617.902344 564.023438 616.925781 572.078125 C 614.675781 588.816406 609.859375 605.0625 607.011719 621.691406 C 604.164062 637.847656 603.421875 655.191406 593.671875 669.054688 C 581.054688 687.183594 561.964844 699.421875 543.195312 710.410156 C 514.90625 726.617188 485.335938 740.402344 455.511719 753.515625 C 406.859375 774.664062 358.722656 798.953125 319.191406 834.929688 C 310.828125 842.546875 302.921875 850.6875 295.539062 859.261719 C 293.25 861.863281 291.136719 864.628906 288.660156 867.050781 C 307.503906 848.960938 327.707031 832.097656 348.863281 816.644531 C 365.289062 804.75 382.675781 794.429688 400.542969 784.8125 C 440.46875 763.023438 483.351562 747.492188 523.910156 727.023438 C 546.945312 715.113281 570.152344 702.199219 588.378906 683.433594 C 607.429688 663.796875 607.464844 647.25 611.464844 622.117188 C 613.414062 610.457031 616.320312 598.992188 618.425781 587.367188 C 621.078125 572.761719 622.359375 557.941406 622.921875 543.113281 C 622.945312 542.601562 622.96875 542.101562 622.984375 541.597656 C 624.554688 539.140625 626.152344 536.707031 627.757812 534.292969 C 639.199219 517.394531 652.320312 501.742188 665.191406 485.945312 C 674.558594 474.292969 684.207031 462.671875 691.230469 449.402344 C 698.5 436.21875 700.382812 421.074219 701.289062 406.269531 C 702.886719 376.433594 704.945312 346.445312 702.441406 316.617188 Z M 492.390625 293.148438 C 497.847656 302.65625 502.246094 312.757812 505.535156 323.21875 C 509.484375 336.085938 512.273438 349.300781 516.691406 362.027344 C 520.359375 372.425781 525.125 382.378906 530.335938 392.085938 C 529.753906 391.746094 529.164062 391.414062 528.574219 391.078125 C 520.085938 386.195312 511.433594 381.589844 502.789062 376.992188 C 490.210938 370.167969 477.707031 363.207031 465.207031 356.226562 C 474.078125 346.074219 481.15625 333.445312 485.332031 321.9375 C 488.324219 312.152344 490.753906 302.070312 491.617188 291.851562 C 491.878906 292.28125 492.136719 292.714844 492.390625 293.148438 Z M 464.339844 238.847656 C 469.53125 255.289062 478.398438 270.042969 487.285156 284.699219 C 487.222656 291.679688 486.359375 298.664062 484.804688 305.472656 C 482.554688 316.203125 479.175781 326.226562 473.882812 335.957031 C 470.480469 342.4375 466.875 348.832031 462.699219 354.828125 C 441.082031 342.742188 419.480469 330.613281 397.570312 319.066406 C 404.179688 307.628906 410.703125 296.113281 416.777344 284.414062 C 420.125 278.074219 423.285156 271.628906 426.1875 265.0625 C 426.335938 266.214844 426.546875 267.222656 426.796875 267.828125 C 427.835938 271.527344 431.515625 273.667969 435.199219 273.851562 C 441.332031 274.304688 446.113281 269.535156 449.746094 265.167969 C 457.191406 255.433594 460.746094 243.496094 462.191406 231.335938 C 462.886719 233.847656 463.613281 236.34375 464.339844 238.847656 Z M 695.832031 402.171875 C 694.816406 415.824219 694.28125 429.875 688.753906 442.628906 C 684.96875 451.574219 679.347656 459.574219 673.515625 467.289062 C 666.765625 476.171875 659.667969 484.828125 652.609375 493.476562 C 642.410156 506.050781 632.054688 518.707031 623.289062 532.351562 C 624.234375 498.460938 622.757812 464.539062 619.40625 430.804688 C 622.945312 424.417969 626.089844 417.84375 628.367188 410.863281 C 629.523438 407.199219 630.402344 403.460938 631.179688 399.703125 C 632.859375 391.765625 635.050781 383.949219 637.613281 376.265625 C 642.519531 362.195312 647.148438 348.179688 644.386719 333.101562 C 641.328125 313.875 635.695312 294.453125 638.714844 274.863281 C 641.414062 259.707031 648.945312 240.125 663.769531 233.304688 C 668.433594 231.285156 672.503906 231.804688 675.792969 233.910156 C 676.367188 237.183594 676.964844 240.453125 677.507812 243.71875 C 678.902344 253.367188 678.945312 270.332031 689.03125 275.238281 C 689.589844 275.441406 690.132812 275.570312 690.65625 275.628906 C 694.015625 293.441406 696.96875 311.363281 697.707031 329.488281 C 698.570312 353.628906 697.382812 377.925781 695.832031 402.171875 Z M 695.832031 402.171875 " fill-opacity="1" fill-rule="nonzero"/></g></svg>