<svg xmlns="http://www.w3.org/2000/svg" xmlns:xlink="http://www.w3.org/1999/xlink" width="1080" zoomAndPan="magnify" viewBox="0 0 810 1012.49997" height="1350" preserveAspectRatio="xMidYMid meet" version="1.0"><defs><clipPath id="7b0fdb9f9e"><path d="M 33.300781 228.621094 L 775 228.621094 L 775 783.347656 L 33.300781 783.347656 Z M 33.300781 228.621094 " clip-rule="nonzero"/></clipPath><clipPath id="5e80a6295f"><path d="M 33.300781 215.183594 L 775 215.183594 L 775 769.910156 L 33.300781 769.910156 Z M 33.300781 215.183594 " clip-rule="nonzero"/></clipPath></defs><g clip-path="url(#7b0fdb9f9e)"><path fill="#e6b0aa" d="M 762.457031 745.808594 C 761.398438 745.597656 760.335938 745.378906 759.273438 745.152344 C 759.289062 745.128906 759.308594 745.109375 759.324219 745.082031 C 761.417969 742.140625 763.53125 738.980469 764.042969 735.328125 C 764.972656 727.925781 761.742188 720.632812 753.515625 720.503906 C 739.628906 720.933594 725.714844 723.535156 711.820312 721.796875 C 697.042969 719.789062 683.355469 712.316406 672.644531 702.082031 C 665.339844 694.9375 659.875 686.269531 654.761719 677.492188 C 644.824219 660.890625 634.429688 644.621094 625.46875 627.449219 C 604.773438 590.648438 586.816406 552.046875 560.589844 518.640625 C 542.9375 495.207031 524.007812 472.550781 504.152344 450.917969 C 486.441406 431.773438 467.933594 413.34375 451.21875 393.292969 C 440.246094 380.289062 429.703125 366.921875 419.113281 353.601562 C 415.992188 349.5 412.9375 345.328125 409.753906 341.269531 C 409.316406 340.730469 408.898438 340.152344 408.507812 339.621094 C 408.789062 340.089844 409.113281 340.523438 409.414062 340.984375 C 416.457031 351.476562 423.320312 362.09375 430.757812 372.3125 C 438.332031 382.96875 446.640625 393.078125 454.992188 403.132812 C 468.871094 419.785156 483.925781 435.394531 498.546875 451.386719 C 525.578125 481.113281 550 512.976562 573.503906 545.585938 C 589.117188 567.796875 601.59375 591.902344 614.226562 615.894531 C 620.777344 627.78125 627.3125 639.660156 634.0625 651.433594 C 638.785156 659.710938 643.816406 668.113281 648.710938 676.328125 C 655.089844 687.128906 661.515625 698.191406 670.828125 706.765625 C 691.859375 725.398438 710.242188 728.707031 734.535156 727.023438 C 731.125 732.578125 736.179688 734.757812 741.347656 734.617188 C 747.589844 734.628906 755.472656 732.675781 757.664062 726.417969 C 760.578125 728.636719 761.203125 733.027344 760.886719 736.460938 C 760.171875 739.378906 758.957031 742.179688 757.351562 744.75 C 747.347656 742.644531 737.394531 740.304688 727.511719 737.636719 C 726.175781 737.28125 724.773438 736.828125 723.484375 736.480469 C 733.257812 741.789062 743.777344 745.441406 754.351562 748.789062 C 754.816406 748.933594 755.277344 749.082031 755.746094 749.226562 C 755.753906 749.226562 755.753906 749.230469 755.757812 749.230469 C 756.730469 749.5625 757.734375 749.875 758.726562 750.199219 C 758.285156 750.761719 757.914062 751.375 757.644531 751.933594 C 755.894531 754.953125 757.4375 758.707031 761.0625 759.007812 C 763.660156 759.367188 766.109375 757.71875 767.484375 755.582031 C 767.820312 756.503906 767.800781 757.582031 767.832031 758.5625 C 767.648438 761.554688 767.605469 764.910156 765.753906 767.40625 C 763.375 770.210938 757.136719 772.722656 751.125 773.738281 C 753.386719 771.199219 754.15625 767.53125 753.734375 764.148438 C 753.695312 759.570312 751.757812 756.441406 748.902344 754.125 C 748.816406 754.050781 748.726562 753.980469 748.636719 753.914062 C 748.628906 753.902344 748.621094 753.898438 748.617188 753.894531 C 744.851562 750.960938 739.601562 749.359375 734.96875 747.722656 C 719.613281 742.644531 704.414062 737.09375 689.414062 731.039062 C 683.660156 728.632812 677.992188 726.003906 672.585938 722.894531 C 670.15625 721.425781 667.507812 719.996094 665.722656 717.734375 C 665.894531 718.167969 666.347656 718.605469 666.699219 718.996094 C 684.15625 735.011719 707.167969 742.902344 729.011719 751.074219 C 732.71875 752.605469 736.867188 753.699219 740.613281 755.429688 C 738.765625 756.5 737.335938 758.570312 737.730469 760.6875 C 738.484375 762.863281 741.054688 764.109375 743.214844 764.410156 C 745.121094 764.589844 746.957031 763.691406 748.351562 762.433594 C 748.707031 763.917969 748.695312 765.511719 748.738281 767.019531 C 748.644531 770.941406 745.75 772.882812 742.179688 773.882812 L 742.175781 773.882812 C 742.066406 773.910156 741.953125 773.941406 741.84375 773.96875 C 741.695312 774.007812 741.546875 774.042969 741.398438 774.082031 L 741.394531 774.082031 C 738.082031 774.875 734.332031 774.957031 731.714844 775.101562 C 728.144531 775.046875 724.640625 774.453125 721.167969 773.652344 C 723.050781 769.367188 722.660156 764.285156 720.179688 760.128906 C 717.242188 754.910156 711.953125 751.78125 706.519531 749.675781 C 700.558594 747.058594 693.71875 745.117188 687.113281 744.707031 C 683.566406 744.511719 678.894531 744.171875 675.929688 744.40625 C 686.539062 744.828125 696.835938 748.328125 705.894531 753.808594 C 707.949219 754.859375 709.886719 756.324219 711.496094 758.027344 C 711.089844 758.039062 710.679688 758.140625 710.285156 758.328125 C 708.246094 759.148438 707.167969 761.640625 707.390625 763.730469 C 707.699219 766.105469 710.207031 767.636719 712.402344 767.996094 C 713.59375 768.179688 714.828125 767.929688 715.90625 767.382812 C 715.917969 768.96875 715.519531 770.519531 714.589844 771.945312 C 714.585938 771.949219 714.585938 771.957031 714.582031 771.960938 C 714.535156 772.023438 714.496094 772.089844 714.453125 772.148438 C 714.402344 772.21875 714.359375 772.285156 714.308594 772.351562 C 713.335938 773.679688 711.886719 774.886719 709.871094 775.902344 C 704.210938 777.554688 696.75 775.585938 689.976562 773.929688 C 690.253906 773.761719 690.53125 773.59375 690.804688 773.421875 C 690.445312 773.570312 690.078125 773.722656 689.714844 773.871094 C 687.207031 773.257812 684.800781 772.707031 682.617188 772.398438 C 674.414062 770.828125 665.890625 770.445312 657.742188 772.53125 C 659.53125 772.453125 661.421875 772.355469 663.261719 772.40625 C 670.144531 772.453125 676.90625 774.03125 683.46875 776.121094 C 679.28125 777.445312 674.96875 778.417969 670.605469 778.90625 C 657.121094 780.640625 644.070312 777.398438 631.707031 772.144531 C 621.183594 767.773438 611.496094 761.644531 602.457031 754.753906 C 584.175781 741.167969 568.679688 724.375 551.277344 709.769531 C 532.972656 694.476562 512.03125 682 489.332031 674.488281 C 467.074219 667.777344 443.609375 667.199219 420.722656 663.851562 C 406.808594 661.667969 392.410156 658.988281 379.605469 652.765625 C 379.011719 652.46875 378.421875 652.160156 377.835938 651.839844 C 378.074219 649.8125 378 647.738281 377.765625 645.742188 C 375.128906 629.257812 360.457031 614.707031 347.523438 604.648438 C 347.832031 598.570312 349.203125 592.390625 351.421875 586.367188 C 357.453125 569.558594 365.667969 552.871094 365.605469 534.625 C 365.503906 525.105469 362.070312 515.980469 358.253906 507.378906 C 337.425781 464.878906 302.253906 432.140625 268.933594 399.4375 C 234.855469 366.234375 199.167969 334.742188 163.785156 302.953125 C 153.410156 293.753906 142.859375 284.773438 133.398438 274.601562 C 131.128906 272.011719 128.742188 269.414062 127.109375 266.394531 C 127.121094 266.386719 127.105469 266.375 127.097656 266.378906 C 126.984375 266.429688 127.585938 267.425781 127.621094 267.496094 C 129.6875 270.960938 132.136719 274.199219 134.757812 277.265625 C 142.105469 285.953125 150.160156 294.003906 158.503906 301.734375 C 189.273438 330.160156 221 357.550781 251.320312 386.460938 C 278.066406 412.675781 305.484375 438.503906 328.902344 467.832031 C 340.285156 483.25 351.578125 499.316406 357.9375 517.546875 C 359.882812 523.425781 361.453125 529.535156 361.304688 535.773438 C 360.769531 552.742188 353.132812 568.242188 347.609375 583.972656 C 345.585938 589.539062 344.09375 595.507812 343.457031 601.53125 C 334.113281 594.664062 323.785156 589.277344 313.996094 583.074219 C 304.210938 576.878906 297.148438 571.035156 291.140625 564.34375 C 290.136719 560.261719 288.953125 556.226562 287.621094 552.238281 L 287.621094 552.234375 C 288.128906 550.929688 288.464844 549.566406 288.621094 548.195312 C 289.589844 541.613281 288.371094 534.761719 286.113281 528.542969 C 282.074219 517.589844 276.449219 507.582031 269.378906 498.214844 C 263.417969 490.03125 256.699219 482.371094 251.667969 473.550781 C 247.980469 467.261719 245.65625 460.265625 244.816406 453.023438 C 243.613281 439.925781 244.046875 426.042969 239.441406 413.4375 C 227.582031 377.394531 205.933594 366.253906 177.441406 345.363281 C 166.75 337.132812 156.445312 327.902344 146.382812 318.816406 C 138.488281 311.574219 130.601562 304.269531 123.550781 296.183594 C 111.894531 282.871094 102.296875 267.945312 93.609375 252.566406 C 89.105469 244.746094 84.570312 236.738281 80.488281 228.664062 C 86.902344 244.414062 94.550781 259.671875 102.554688 274.664062 C 112.1875 291.140625 124.695312 305.785156 138.625 318.789062 C 153.714844 332.902344 168.882812 347.078125 185.753906 359.070312 C 194.582031 365.625 203.863281 371.65625 211.820312 379.292969 C 223.992188 391.488281 232.015625 407.398438 236.847656 423.808594 C 239.992188 435.96875 238.539062 448.796875 241.878906 460.917969 C 245.101562 473.890625 254.050781 484.808594 261.84375 495.417969 C 268.5 504.144531 274.652344 513.339844 278.734375 523.578125 C 281.003906 529.300781 282.847656 535.378906 283.296875 541.546875 C 282.050781 539.078125 280.601562 536.722656 278.855469 534.570312 C 276.042969 531.257812 272.421875 528.230469 268.089844 527.28125 C 263.28125 526.234375 258.933594 529.75 258.554688 534.570312 C 258.253906 539.332031 260.027344 543.699219 261.789062 548.035156 C 259.5 545.546875 257.414062 542.835938 255.339844 540.195312 C 250.304688 533.648438 246.3125 525.96875 241.707031 519.066406 C 236.898438 511.71875 231.933594 504.300781 225.675781 498.109375 C 225.367188 497.804688 225.0625 497.507812 224.753906 497.214844 C 223.992188 496.484375 223.210938 495.777344 222.40625 495.09375 C 213.320312 487.730469 203.628906 481.058594 195.390625 472.683594 C 191.203125 468.265625 186.621094 463.761719 184.433594 457.964844 C 186.039062 463.714844 189.84375 468.625 193.484375 473.261719 C 202.050781 483.746094 213.027344 491.789062 222.953125 500.878906 C 223.6875 501.609375 224.40625 502.355469 225.117188 503.117188 C 225.628906 508.675781 226.714844 514.15625 228.839844 519.371094 C 231.273438 525.726562 234.558594 531.675781 237.597656 537.746094 C 240.589844 543.6875 243.027344 549.90625 246.414062 555.648438 C 251.839844 564.707031 258.269531 573.234375 262.136719 583.140625 C 264.726562 589.5625 266.460938 596.164062 269.269531 602.441406 C 269.449219 602.835938 269.628906 603.230469 269.816406 603.625 C 269.941406 603.890625 270.070312 604.160156 270.203125 604.425781 C 270.277344 604.574219 270.351562 604.722656 270.429688 604.875 C 270.878906 605.773438 271.363281 606.664062 271.882812 607.542969 C 277.097656 615.414062 283.660156 622.472656 288.726562 630.535156 C 299.207031 646.625 308.160156 664.21875 309.726562 683.667969 C 310.242188 688.042969 310.519531 692.472656 309.917969 696.855469 C 309.53125 699.148438 309.035156 701.523438 307.503906 703.351562 C 307.40625 703.46875 307.3125 703.589844 307.210938 703.714844 C 307.15625 703.605469 307.105469 703.496094 307.050781 703.390625 C 303.488281 697.269531 302.175781 689.824219 297.183594 684.515625 C 295.636719 682.847656 293.046875 680.222656 290.671875 681.980469 C 290.585938 682.0625 290.507812 682.148438 290.433594 682.234375 C 288.679688 677.585938 286.691406 673.035156 284.425781 668.617188 C 277.042969 653.847656 266.625 640.5625 254.371094 629.515625 C 239.644531 618.480469 235.890625 606.644531 226.894531 591.519531 C 223.042969 585.050781 218.414062 579.058594 212.972656 573.839844 C 207.707031 568.613281 201.660156 564.25 196.375 559.042969 C 191.984375 554.542969 187.851562 549.128906 184.613281 543.632812 C 180.710938 536.78125 178.09375 529.539062 175.351562 522.097656 C 168.203125 501.816406 163.09375 480.738281 153.492188 461.398438 C 145.519531 445.113281 135.632812 429.671875 123.277344 416.347656 C 110.652344 402.820312 95.636719 391.726562 80.191406 381.632812 C 70.917969 375.78125 61.515625 370.101562 51.714844 365.175781 C 45.800781 362.027344 39.429688 359.921875 33.410156 357.023438 C 33.410156 357.023438 33.410156 357.023438 33.410156 357.015625 C 33.421875 357.015625 33.421875 356.996094 33.410156 356.996094 C 33.292969 357.054688 33.835938 357.335938 33.835938 357.335938 C 38.246094 359.691406 42.777344 361.828125 47.09375 364.363281 C 57.941406 370.824219 68.390625 378.066406 78.960938 384.988281 C 92.285156 393.757812 105.109375 403.363281 116.445312 414.675781 C 128.035156 426.527344 138.210938 440.042969 145.875 454.78125 C 154.722656 471.445312 160.335938 489.519531 165.992188 507.441406 C 170.503906 520.859375 174.023438 534.90625 181.574219 547.023438 C 185.324219 552.886719 189.5 558.535156 194.546875 563.351562 C 199.863281 568.4375 205.914062 572.695312 211.167969 577.851562 C 216.757812 583.355469 221.023438 589.988281 224.914062 596.753906 C 230.207031 606.515625 235.429688 616.460938 243.308594 624.445312 C 247.882812 629.238281 253.390625 633.015625 258.085938 637.6875 C 269.113281 648.859375 278.023438 662.199219 284.050781 676.738281 C 285.316406 679.332031 286.804688 684.105469 288.589844 689.242188 C 288.914062 694.476562 291.484375 700.59375 293 704.148438 C 295.445312 709.769531 304.179688 722.015625 309.75 724.28125 C 312.179688 724.71875 313.285156 721.835938 313.054688 719.84375 C 312.847656 715.476562 311.09375 711.414062 309.136719 707.503906 C 310.011719 706.671875 310.78125 705.683594 311.464844 704.628906 C 316.710938 696.136719 313.339844 679.738281 311.566406 670.078125 C 307.652344 654.78125 300 640.738281 291.28125 627.671875 C 287.558594 622.183594 283.425781 616.984375 279.441406 611.679688 C 279.027344 611.125 278.613281 610.574219 278.207031 610.015625 C 283.007812 612.871094 288.039062 615.332031 293.132812 617.417969 C 301.238281 620.710938 309.71875 624.15625 317.601562 628.175781 C 328.164062 633.183594 337.945312 639.582031 346.984375 646.964844 C 347.070312 647.246094 347.175781 647.519531 347.292969 647.785156 C 348.382812 650.347656 350.359375 652.445312 352.160156 654.554688 C 354.53125 657.214844 357.03125 659.777344 359.734375 662.109375 C 365.210938 666.714844 371.457031 670.539062 378.09375 673.210938 C 379.480469 673.832031 381.214844 673.453125 382.105469 672.167969 C 383.585938 670.152344 382.660156 667.703125 381.6875 665.6875 C 380.234375 662.636719 378.433594 659.75 376.371094 657.074219 C 376.507812 656.796875 376.628906 656.515625 376.746094 656.234375 C 383.601562 659.734375 391.050781 661.992188 398.503906 663.835938 C 418.144531 668.816406 438.460938 669.886719 458.441406 672.820312 C 466.96875 674.035156 475.714844 675.445312 484.085938 677.71875 C 496.382812 681.140625 507.984375 686.664062 519.0625 692.929688 C 551.316406 710.449219 574.464844 740.417969 603.839844 761.953125 C 619.167969 773.257812 637.230469 782.246094 656.550781 783.019531 C 666.421875 783.308594 676.230469 781 685.046875 776.640625 C 686.515625 777.128906 687.972656 777.640625 689.417969 778.15625 C 694.820312 780.078125 700.316406 782.175781 706.101562 782.472656 C 710.828125 782.914062 715.707031 781.222656 718.683594 777.421875 C 719.394531 776.644531 720.007812 775.816406 720.507812 774.933594 C 722.214844 775.585938 723.933594 776.1875 725.660156 776.746094 C 732.773438 778.855469 741.601562 779.167969 748.398438 775.789062 C 748.613281 775.792969 748.828125 775.796875 749.042969 775.796875 C 756.210938 775.851562 764.402344 774.746094 769.5 769.207031 C 776.6875 759.542969 776.152344 747.96875 762.457031 745.808594 Z M 306.371094 704.710938 C 306.351562 704.574219 306.332031 704.441406 306.3125 704.3125 C 306.359375 704.425781 306.398438 704.535156 306.441406 704.644531 C 306.421875 704.667969 306.398438 704.6875 306.371094 704.710938 Z M 373.230469 649.921875 C 373.230469 649.996094 373.226562 650.070312 373.226562 650.148438 C 373.226562 650.230469 373.222656 650.3125 373.214844 650.398438 C 373.210938 650.476562 373.207031 650.554688 373.199219 650.636719 C 373.195312 650.761719 373.1875 650.878906 373.171875 651.003906 C 373.160156 651.121094 373.152344 651.234375 373.136719 651.355469 C 373.136719 651.359375 373.136719 651.363281 373.132812 651.375 C 373.117188 651.511719 373.097656 651.652344 373.078125 651.785156 C 373.0625 651.882812 373.046875 651.988281 373.027344 652.085938 C 373.019531 652.15625 373.003906 652.222656 372.992188 652.292969 C 372.972656 652.402344 372.953125 652.503906 372.929688 652.613281 C 372.898438 652.738281 372.875 652.859375 372.84375 652.984375 C 372.839844 652.988281 372.839844 653 372.839844 653.003906 C 372.675781 652.816406 372.519531 652.628906 372.363281 652.445312 C 372.125 652.167969 371.886719 651.886719 371.652344 651.605469 C 371.492188 651.417969 371.335938 651.234375 371.179688 651.046875 C 370.949219 650.773438 370.710938 650.492188 370.480469 650.214844 C 370.09375 649.75 369.707031 649.296875 369.320312 648.839844 C 369.191406 648.6875 369.058594 648.539062 368.929688 648.386719 C 368.542969 647.941406 368.160156 647.507812 367.765625 647.078125 C 367.671875 646.96875 367.570312 646.867188 367.472656 646.757812 C 366.6875 645.90625 365.886719 645.101562 365.054688 644.363281 C 364.953125 644.273438 364.851562 644.183594 364.753906 644.097656 C 364.242188 643.65625 363.71875 643.238281 363.1875 642.851562 C 363.097656 642.789062 363.007812 642.71875 362.914062 642.660156 C 362.828125 642.59375 362.734375 642.53125 362.644531 642.472656 C 362.554688 642.410156 362.460938 642.347656 362.371094 642.289062 C 361.417969 641.667969 360.414062 641.132812 359.335938 640.714844 C 359.265625 640.683594 359.199219 640.660156 359.128906 640.632812 C 359.078125 640.613281 359.03125 640.59375 358.980469 640.582031 C 358.910156 640.554688 358.84375 640.53125 358.769531 640.507812 C 358.609375 640.453125 358.453125 640.402344 358.292969 640.351562 C 358.199219 640.324219 358.105469 640.292969 358.015625 640.269531 C 357.863281 640.226562 357.707031 640.179688 357.554688 640.140625 C 357.414062 640.105469 357.273438 640.070312 357.132812 640.042969 C 357.03125 640.015625 356.925781 639.996094 356.824219 639.976562 C 356.714844 639.953125 356.605469 639.933594 356.496094 639.917969 C 356.480469 639.914062 356.46875 639.914062 356.457031 639.910156 C 356.34375 639.882812 356.234375 639.867188 356.121094 639.855469 C 356.003906 639.835938 355.882812 639.820312 355.765625 639.800781 C 354.164062 639.585938 352.414062 639.597656 350.476562 639.882812 C 348.867188 640.160156 347.800781 641.082031 347.21875 642.289062 C 335.890625 633.296875 323.019531 626.507812 309.714844 620.90625 C 298.449219 615.996094 286.71875 612.671875 275.949219 606.527344 C 275.855469 606.476562 275.761719 606.414062 275.664062 606.359375 C 274.089844 603.9375 272.6875 601.402344 271.648438 598.6875 C 267.953125 589.019531 265.328125 578.867188 259.988281 569.902344 C 256.742188 564.207031 253 558.824219 249.683594 553.175781 C 247.46875 549.347656 245.691406 545.304688 243.78125 541.324219 C 236.214844 526.503906 230.3125 518.195312 227.109375 505.34375 C 232.617188 511.679688 237.335938 518.867188 241.730469 525.972656 C 246.699219 534.433594 251.777344 542.851562 257.992188 550.46875 C 260.34375 553.421875 263.042969 556.40625 266.21875 558.523438 C 270.765625 567.050781 279.078125 577.710938 286.058594 580.101562 C 288.472656 581.011719 291.949219 580.535156 292.9375 577.832031 C 293.445312 575.96875 293.132812 574.027344 292.789062 572.132812 C 293.316406 572.683594 293.855469 573.230469 294.402344 573.765625 C 305.777344 585.292969 320.070312 592.761719 333.496094 601.476562 C 336.625 603.640625 339.875 605.972656 343.113281 608.460938 C 343.777344 608.96875 344.4375 609.488281 345.101562 610.011719 C 345.292969 610.160156 345.480469 610.3125 345.671875 610.460938 C 346.359375 611.007812 347.035156 611.5625 347.71875 612.117188 C 357.492188 620.191406 366.589844 629.742188 371.320312 640.628906 C 372.28125 643.082031 373.128906 646.117188 373.226562 649.066406 C 373.226562 649.074219 373.226562 649.078125 373.226562 649.082031 C 373.234375 649.277344 373.234375 649.46875 373.234375 649.660156 C 373.230469 649.738281 373.230469 649.832031 373.230469 649.921875 Z M 373.230469 649.921875 " fill-opacity="1" fill-rule="nonzero"/></g><g clip-path="url(#5e80a6295f)"><path fill="#7b4b94" d="M 762.457031 732.371094 C 761.398438 732.160156 760.335938 731.941406 759.273438 731.714844 C 759.289062 731.691406 759.308594 731.671875 759.324219 731.644531 C 761.417969 728.703125 763.53125 725.542969 764.042969 721.886719 C 764.972656 714.488281 761.742188 707.195312 753.515625 707.066406 C 739.628906 707.496094 725.714844 710.097656 711.820312 708.359375 C 697.042969 706.347656 683.355469 698.878906 672.644531 688.640625 C 665.339844 681.496094 659.875 672.832031 654.761719 664.050781 C 644.824219 647.449219 634.429688 631.179688 625.46875 614.011719 C 604.773438 577.210938 586.816406 538.605469 560.589844 505.203125 C 542.9375 481.769531 524.007812 459.113281 504.152344 437.480469 C 486.441406 418.335938 467.933594 399.902344 451.21875 379.855469 C 440.246094 366.851562 429.703125 353.484375 419.113281 340.160156 C 415.992188 336.0625 412.9375 331.890625 409.753906 327.832031 C 409.316406 327.292969 408.898438 326.714844 408.507812 326.183594 C 408.789062 326.652344 409.113281 327.085938 409.414062 327.546875 C 416.457031 338.039062 423.320312 348.65625 430.757812 358.875 C 438.332031 369.53125 446.640625 379.640625 454.992188 389.691406 C 468.871094 406.347656 483.925781 421.957031 498.546875 437.949219 C 525.578125 467.675781 550 499.539062 573.503906 532.148438 C 589.117188 554.359375 601.59375 578.464844 614.226562 602.457031 C 620.777344 614.34375 627.3125 626.222656 634.0625 637.996094 C 638.785156 646.269531 643.816406 654.675781 648.710938 662.890625 C 655.089844 673.691406 661.515625 684.75 670.828125 693.328125 C 691.859375 711.957031 710.242188 715.265625 734.535156 713.582031 C 731.125 719.136719 736.179688 721.320312 741.347656 721.175781 C 747.589844 721.191406 755.472656 719.238281 757.664062 712.980469 C 760.578125 715.199219 761.203125 719.585938 760.886719 723.023438 C 760.171875 725.941406 758.957031 728.742188 757.351562 731.308594 C 747.347656 729.207031 737.394531 726.867188 727.511719 724.199219 C 726.175781 723.84375 724.773438 723.390625 723.484375 723.042969 C 733.257812 728.351562 743.777344 732 754.351562 735.347656 C 754.816406 735.496094 755.277344 735.644531 755.746094 735.789062 C 755.753906 735.789062 755.753906 735.792969 755.757812 735.792969 C 756.730469 736.125 757.734375 736.433594 758.726562 736.761719 C 758.285156 737.324219 757.914062 737.9375 757.644531 738.496094 C 755.894531 741.515625 757.4375 745.269531 761.0625 745.570312 C 763.660156 745.929688 766.109375 744.28125 767.484375 742.144531 C 767.820312 743.066406 767.800781 744.144531 767.832031 745.125 C 767.648438 748.117188 767.605469 751.472656 765.753906 753.96875 C 763.375 756.773438 757.136719 759.28125 751.125 760.300781 C 753.386719 757.761719 754.15625 754.09375 753.734375 750.710938 C 753.695312 746.132812 751.757812 743.003906 748.902344 740.6875 C 748.816406 740.613281 748.726562 740.542969 748.636719 740.472656 C 748.628906 740.464844 748.621094 740.460938 748.617188 740.453125 C 744.851562 737.523438 739.601562 735.921875 734.96875 734.28125 C 719.613281 729.207031 704.414062 723.65625 689.414062 717.601562 C 683.660156 715.191406 677.992188 712.566406 672.585938 709.457031 C 670.15625 707.988281 667.507812 706.554688 665.722656 704.296875 C 665.894531 704.730469 666.347656 705.167969 666.699219 705.558594 C 684.15625 721.574219 707.167969 729.464844 729.011719 737.636719 C 732.71875 739.164062 736.867188 740.261719 740.613281 741.992188 C 738.765625 743.0625 737.335938 745.128906 737.730469 747.25 C 738.484375 749.425781 741.054688 750.671875 743.214844 750.972656 C 745.121094 751.148438 746.957031 750.25 748.351562 748.996094 C 748.707031 750.476562 748.695312 752.074219 748.738281 753.578125 C 748.644531 757.503906 745.75 759.445312 742.179688 760.441406 L 742.175781 760.441406 C 742.066406 760.472656 741.953125 760.503906 741.84375 760.53125 C 741.695312 760.570312 741.546875 760.605469 741.398438 760.644531 L 741.394531 760.644531 C 738.082031 761.433594 734.332031 761.519531 731.714844 761.664062 C 728.144531 761.609375 724.640625 761.015625 721.167969 760.214844 C 723.050781 755.929688 722.660156 750.847656 720.179688 746.691406 C 717.242188 741.472656 711.953125 738.339844 706.519531 736.238281 C 700.558594 733.621094 693.71875 731.679688 687.113281 731.269531 C 683.566406 731.074219 678.894531 730.730469 675.929688 730.96875 C 686.539062 731.390625 696.835938 734.890625 705.894531 740.371094 C 707.949219 741.421875 709.886719 742.882812 711.496094 744.585938 C 711.089844 744.601562 710.679688 744.703125 710.285156 744.890625 C 708.246094 745.707031 707.167969 748.203125 707.390625 750.289062 C 707.699219 752.664062 710.207031 754.195312 712.402344 754.558594 C 713.59375 754.738281 714.828125 754.492188 715.90625 753.945312 C 715.917969 755.53125 715.519531 757.082031 714.589844 758.507812 C 714.585938 758.511719 714.585938 758.515625 714.582031 758.523438 C 714.535156 758.585938 714.496094 758.652344 714.453125 758.710938 C 714.402344 758.777344 714.359375 758.847656 714.308594 758.914062 C 713.335938 760.242188 711.886719 761.449219 709.871094 762.460938 C 704.210938 764.117188 696.75 762.144531 689.976562 760.492188 C 690.253906 760.324219 690.53125 760.15625 690.804688 759.984375 C 690.445312 760.132812 690.078125 760.285156 689.714844 760.433594 C 687.207031 759.820312 684.800781 759.269531 682.617188 758.960938 C 674.414062 757.390625 665.890625 757.007812 657.742188 759.09375 C 659.53125 759.015625 661.421875 758.917969 663.261719 758.964844 C 670.144531 759.015625 676.90625 760.589844 683.46875 762.683594 C 679.28125 764.007812 674.96875 764.980469 670.605469 765.46875 C 657.121094 767.203125 644.070312 763.957031 631.707031 758.703125 C 621.183594 754.335938 611.496094 748.207031 602.457031 741.3125 C 584.175781 727.730469 568.679688 710.9375 551.277344 696.332031 C 532.972656 681.039062 512.03125 668.558594 489.332031 661.050781 C 467.074219 654.339844 443.609375 653.761719 420.722656 650.414062 C 406.808594 648.230469 392.410156 645.550781 379.605469 639.328125 C 379.011719 639.03125 378.421875 638.722656 377.835938 638.398438 C 378.074219 636.375 378 634.300781 377.765625 632.300781 C 375.128906 615.820312 360.457031 601.269531 347.523438 591.210938 C 347.832031 585.132812 349.203125 578.953125 351.421875 572.929688 C 357.453125 556.121094 365.667969 539.433594 365.605469 521.1875 C 365.503906 511.667969 362.070312 502.542969 358.253906 493.941406 C 337.425781 451.441406 302.253906 418.703125 268.933594 386 C 234.855469 352.796875 199.167969 321.304688 163.785156 289.515625 C 153.410156 280.316406 142.859375 271.332031 133.398438 261.160156 C 131.128906 258.574219 128.742188 255.976562 127.109375 252.953125 C 127.121094 252.949219 127.105469 252.933594 127.097656 252.941406 C 126.984375 252.988281 127.585938 253.988281 127.621094 254.054688 C 129.6875 257.523438 132.136719 260.761719 134.757812 263.828125 C 142.105469 272.515625 150.160156 280.566406 158.503906 288.292969 C 189.273438 316.722656 221 344.113281 251.320312 373.023438 C 278.066406 399.238281 305.484375 425.066406 328.902344 454.394531 C 340.285156 469.8125 351.578125 485.875 357.9375 504.105469 C 359.882812 509.988281 361.453125 516.09375 361.304688 522.335938 C 360.769531 539.304688 353.132812 554.804688 347.609375 570.535156 C 345.585938 576.101562 344.09375 582.070312 343.457031 588.09375 C 334.113281 581.226562 323.785156 575.839844 313.996094 569.636719 C 304.210938 563.4375 297.148438 557.597656 291.140625 550.90625 C 290.136719 546.824219 288.953125 542.789062 287.621094 538.800781 L 287.621094 538.792969 C 288.128906 537.492188 288.464844 536.128906 288.621094 534.753906 C 289.589844 528.171875 288.371094 521.324219 286.113281 515.101562 C 282.074219 504.152344 276.449219 494.140625 269.378906 484.773438 C 263.417969 476.59375 256.699219 468.933594 251.667969 460.109375 C 247.980469 453.824219 245.65625 446.828125 244.816406 439.585938 C 243.613281 426.488281 244.046875 412.605469 239.441406 399.996094 C 227.582031 363.957031 205.933594 352.816406 177.441406 331.925781 C 166.75 323.695312 156.445312 314.464844 146.382812 305.378906 C 138.488281 298.136719 130.601562 290.832031 123.550781 282.746094 C 111.894531 269.433594 102.296875 254.503906 93.609375 239.128906 C 89.105469 231.308594 84.570312 223.296875 80.488281 215.226562 C 86.902344 230.976562 94.550781 246.234375 102.554688 261.226562 C 112.1875 277.703125 124.695312 292.347656 138.625 305.351562 C 153.714844 319.460938 168.882812 333.640625 185.753906 345.632812 C 194.582031 352.183594 203.863281 358.21875 211.820312 365.851562 C 223.992188 378.050781 232.015625 393.960938 236.847656 410.371094 C 239.992188 422.527344 238.539062 435.359375 241.878906 447.480469 C 245.101562 460.453125 254.050781 471.367188 261.84375 481.980469 C 268.5 490.707031 274.652344 499.898438 278.734375 510.140625 C 281.003906 515.863281 282.847656 521.941406 283.296875 528.109375 C 282.050781 525.640625 280.601562 523.285156 278.855469 521.132812 C 276.042969 517.820312 272.421875 514.792969 268.089844 513.84375 C 263.28125 512.796875 258.933594 516.3125 258.554688 521.132812 C 258.253906 525.890625 260.027344 530.261719 261.789062 534.597656 C 259.5 532.109375 257.414062 529.398438 255.339844 526.757812 C 250.304688 520.207031 246.3125 512.53125 241.707031 505.628906 C 236.898438 498.28125 231.933594 490.863281 225.675781 484.671875 C 225.367188 484.367188 225.0625 484.070312 224.753906 483.777344 C 223.992188 483.046875 223.210938 482.339844 222.40625 481.65625 C 213.320312 474.292969 203.628906 467.621094 195.390625 459.246094 C 191.203125 454.828125 186.621094 450.324219 184.433594 444.527344 C 186.039062 450.273438 189.84375 455.1875 193.484375 459.824219 C 202.050781 470.308594 213.027344 478.351562 222.953125 487.441406 C 223.6875 488.171875 224.40625 488.917969 225.117188 489.679688 C 225.628906 495.238281 226.714844 500.71875 228.839844 505.933594 C 231.273438 512.289062 234.558594 518.238281 237.597656 524.308594 C 240.589844 530.246094 243.027344 536.46875 246.414062 542.210938 C 251.839844 551.269531 258.269531 559.796875 262.136719 569.699219 C 264.726562 576.125 266.460938 582.726562 269.269531 589.003906 C 269.449219 589.398438 269.628906 589.792969 269.816406 590.1875 C 269.941406 590.453125 270.070312 590.722656 270.203125 590.988281 C 270.277344 591.136719 270.351562 591.285156 270.429688 591.4375 C 270.878906 592.335938 271.363281 593.222656 271.882812 594.101562 C 277.097656 601.972656 283.660156 609.035156 288.726562 617.097656 C 299.207031 633.1875 308.160156 650.78125 309.726562 670.230469 C 310.242188 674.605469 310.519531 679.035156 309.917969 683.417969 C 309.53125 685.710938 309.035156 688.085938 307.503906 689.910156 C 307.40625 690.03125 307.3125 690.152344 307.210938 690.277344 C 307.15625 690.167969 307.105469 690.058594 307.050781 689.949219 C 303.488281 683.832031 302.175781 676.386719 297.183594 671.078125 C 295.636719 669.410156 293.046875 666.78125 290.671875 668.539062 C 290.585938 668.625 290.507812 668.707031 290.433594 668.796875 C 288.679688 664.144531 286.691406 659.597656 284.425781 655.179688 C 277.042969 640.410156 266.625 627.121094 254.371094 616.078125 C 239.644531 605.039062 235.890625 593.203125 226.894531 578.078125 C 223.042969 571.613281 218.414062 565.621094 212.972656 560.402344 C 207.707031 555.171875 201.660156 550.8125 196.375 545.605469 C 191.984375 541.105469 187.851562 535.6875 184.613281 530.191406 C 180.710938 523.34375 178.09375 516.101562 175.351562 508.660156 C 168.203125 488.378906 163.09375 467.300781 153.492188 447.957031 C 145.519531 431.675781 135.632812 416.234375 123.277344 402.910156 C 110.652344 389.382812 95.636719 378.285156 80.191406 368.195312 C 70.917969 362.34375 61.515625 356.664062 51.714844 351.734375 C 45.800781 348.589844 39.429688 346.480469 33.410156 343.582031 C 33.410156 343.582031 33.410156 343.582031 33.410156 343.578125 C 33.421875 343.578125 33.421875 343.558594 33.410156 343.558594 C 33.292969 343.617188 33.835938 343.898438 33.835938 343.898438 C 38.246094 346.253906 42.777344 348.386719 47.09375 350.925781 C 57.941406 357.382812 68.390625 364.628906 78.960938 371.550781 C 92.285156 380.320312 105.109375 389.925781 116.445312 401.238281 C 128.035156 413.089844 138.210938 426.601562 145.875 441.34375 C 154.722656 458.007812 160.335938 476.078125 165.992188 494.003906 C 170.503906 507.421875 174.023438 521.46875 181.574219 533.585938 C 185.324219 539.445312 189.5 545.09375 194.546875 549.914062 C 199.863281 555 205.914062 559.257812 211.167969 564.414062 C 216.757812 569.917969 221.023438 576.550781 224.914062 583.3125 C 230.207031 593.074219 235.429688 603.019531 243.308594 611.003906 C 247.882812 615.800781 253.390625 619.578125 258.085938 624.25 C 269.113281 635.421875 278.023438 648.757812 284.050781 663.300781 C 285.316406 665.894531 286.804688 670.667969 288.589844 675.804688 C 288.914062 681.039062 291.484375 687.15625 293 690.710938 C 295.445312 696.332031 304.179688 708.578125 309.75 710.84375 C 312.179688 711.28125 313.285156 708.398438 313.054688 706.402344 C 312.847656 702.039062 311.09375 697.976562 309.136719 694.0625 C 310.011719 693.234375 310.78125 692.246094 311.464844 691.191406 C 316.710938 682.699219 313.339844 666.300781 311.566406 656.640625 C 307.652344 641.34375 300 627.300781 291.28125 614.234375 C 287.558594 608.742188 283.425781 603.542969 279.441406 598.242188 C 279.027344 597.6875 278.613281 597.136719 278.207031 596.578125 C 283.007812 599.429688 288.039062 601.894531 293.132812 603.980469 C 301.238281 607.273438 309.71875 610.71875 317.601562 614.738281 C 328.164062 619.746094 337.945312 626.144531 346.984375 633.527344 C 347.070312 633.808594 347.175781 634.078125 347.292969 634.347656 C 348.382812 636.910156 350.359375 639.007812 352.160156 641.117188 C 354.53125 643.777344 357.03125 646.339844 359.734375 648.671875 C 365.210938 653.277344 371.457031 657.101562 378.09375 659.769531 C 379.480469 660.394531 381.214844 660.011719 382.105469 658.730469 C 383.585938 656.714844 382.660156 654.265625 381.6875 652.25 C 380.234375 649.199219 378.433594 646.308594 376.371094 643.632812 C 376.507812 643.359375 376.628906 643.078125 376.746094 642.792969 C 383.601562 646.296875 391.050781 648.550781 398.503906 650.398438 C 418.144531 655.375 438.460938 656.449219 458.441406 659.382812 C 466.96875 660.59375 475.714844 662.007812 484.085938 664.277344 C 496.382812 667.699219 507.984375 673.226562 519.0625 679.492188 C 551.316406 697.011719 574.464844 726.980469 603.839844 748.511719 C 619.167969 759.820312 637.230469 768.808594 656.550781 769.582031 C 666.421875 769.871094 676.230469 767.5625 685.046875 763.203125 C 686.515625 763.691406 687.972656 764.199219 689.417969 764.71875 C 694.820312 766.640625 700.316406 768.738281 706.101562 769.035156 C 710.828125 769.472656 715.707031 767.785156 718.683594 763.984375 C 719.394531 763.207031 720.007812 762.378906 720.507812 761.496094 C 722.214844 762.148438 723.933594 762.75 725.660156 763.308594 C 732.773438 765.414062 741.601562 765.730469 748.398438 762.347656 C 748.613281 762.355469 748.828125 762.359375 749.042969 762.359375 C 756.210938 762.414062 764.402344 761.308594 769.5 755.765625 C 776.6875 746.105469 776.152344 734.53125 762.457031 732.371094 Z M 306.371094 691.273438 C 306.351562 691.136719 306.332031 691.003906 306.3125 690.875 C 306.359375 690.988281 306.398438 691.097656 306.441406 691.203125 C 306.421875 691.230469 306.398438 691.25 306.371094 691.273438 Z M 373.230469 636.484375 C 373.230469 636.558594 373.226562 636.632812 373.226562 636.710938 C 373.226562 636.789062 373.222656 636.875 373.214844 636.957031 C 373.210938 637.039062 373.207031 637.117188 373.199219 637.199219 C 373.195312 637.324219 373.1875 637.441406 373.171875 637.566406 C 373.160156 637.683594 373.152344 637.796875 373.136719 637.917969 C 373.136719 637.921875 373.136719 637.925781 373.132812 637.9375 C 373.117188 638.074219 373.097656 638.210938 373.078125 638.347656 C 373.0625 638.445312 373.046875 638.546875 373.027344 638.648438 C 373.019531 638.714844 373.003906 638.785156 372.992188 638.855469 C 372.972656 638.964844 372.953125 639.066406 372.929688 639.175781 C 372.898438 639.296875 372.875 639.421875 372.84375 639.546875 C 372.839844 639.550781 372.839844 639.558594 372.839844 639.566406 C 372.675781 639.378906 372.519531 639.191406 372.363281 639.007812 C 372.125 638.730469 371.886719 638.449219 371.652344 638.167969 C 371.492188 637.980469 371.335938 637.796875 371.179688 637.609375 C 370.949219 637.332031 370.710938 637.050781 370.480469 636.777344 C 370.09375 636.3125 369.707031 635.855469 369.320312 635.402344 C 369.191406 635.25 369.058594 635.101562 368.929688 634.949219 C 368.542969 634.503906 368.160156 634.070312 367.765625 633.640625 C 367.671875 633.53125 367.570312 633.425781 367.472656 633.320312 C 366.6875 632.46875 365.886719 631.664062 365.054688 630.925781 C 364.953125 630.835938 364.851562 630.746094 364.753906 630.65625 C 364.242188 630.21875 363.71875 629.796875 363.1875 629.414062 C 363.097656 629.347656 363.007812 629.28125 362.914062 629.222656 C 362.828125 629.15625 362.734375 629.09375 362.644531 629.03125 C 362.554688 628.972656 362.460938 628.910156 362.371094 628.851562 C 361.417969 628.226562 360.414062 627.695312 359.335938 627.273438 C 359.265625 627.246094 359.199219 627.222656 359.128906 627.195312 C 359.078125 627.175781 359.03125 627.15625 358.980469 627.140625 C 358.910156 627.117188 358.84375 627.09375 358.769531 627.066406 C 358.609375 627.011719 358.453125 626.964844 358.292969 626.914062 C 358.199219 626.886719 358.105469 626.855469 358.015625 626.832031 C 357.863281 626.785156 357.707031 626.742188 357.554688 626.703125 C 357.414062 626.667969 357.273438 626.632812 357.132812 626.605469 C 357.03125 626.578125 356.925781 626.558594 356.824219 626.539062 C 356.714844 626.515625 356.605469 626.496094 356.496094 626.480469 C 356.480469 626.476562 356.46875 626.476562 356.457031 626.46875 C 356.34375 626.445312 356.234375 626.429688 356.121094 626.417969 C 356.003906 626.394531 355.882812 626.382812 355.765625 626.363281 C 354.164062 626.148438 352.414062 626.160156 350.476562 626.445312 C 348.867188 626.722656 347.800781 627.644531 347.21875 628.851562 C 335.890625 619.859375 323.019531 613.070312 309.714844 607.46875 C 298.449219 602.554688 286.71875 599.234375 275.949219 593.089844 C 275.855469 593.035156 275.761719 592.976562 275.664062 592.921875 C 274.089844 590.5 272.6875 587.964844 271.648438 585.25 C 267.953125 575.582031 265.328125 565.429688 259.988281 556.460938 C 256.742188 550.769531 253 545.386719 249.683594 539.738281 C 247.46875 535.910156 245.691406 531.867188 243.78125 527.886719 C 236.214844 513.0625 230.3125 504.757812 227.109375 491.90625 C 232.617188 498.242188 237.335938 505.429688 241.730469 512.535156 C 246.699219 520.992188 251.777344 529.414062 257.992188 537.03125 C 260.34375 539.984375 263.042969 542.96875 266.21875 545.085938 C 270.765625 553.613281 279.078125 564.273438 286.058594 566.664062 C 288.472656 567.570312 291.949219 567.097656 292.9375 564.390625 C 293.445312 562.53125 293.132812 560.589844 292.789062 558.695312 C 293.316406 559.246094 293.855469 559.789062 294.402344 560.328125 C 305.777344 571.851562 320.070312 579.324219 333.496094 588.039062 C 336.625 590.203125 339.875 592.53125 343.113281 595.023438 C 343.777344 595.53125 344.4375 596.046875 345.101562 596.570312 C 345.292969 596.71875 345.480469 596.875 345.671875 597.019531 C 346.359375 597.570312 347.035156 598.121094 347.71875 598.679688 C 357.492188 606.753906 366.589844 616.304688 371.320312 627.191406 C 372.28125 629.644531 373.128906 632.675781 373.226562 635.628906 C 373.226562 635.636719 373.226562 635.640625 373.226562 635.644531 C 373.234375 635.835938 373.234375 636.03125 373.234375 636.222656 C 373.230469 636.300781 373.230469 636.394531 373.230469 636.484375 Z M 373.230469 636.484375 " fill-opacity="1" fill-rule="nonzero"/></g></svg>